<svg width="16" height="12" viewBox="0 0 16 12" fill="none" xmlns="http://www.w3.org/2000/svg">
<g clip-path="url(#clip0_6280_59)">
<path fill-rule="evenodd" clip-rule="evenodd" d="M0 0H16V12H0V0Z" fill="#0B6B37"/>
<path fill-rule="evenodd" clip-rule="evenodd" d="M3.53495 3.40066C3.5162 3.68191 3.48808 4.17409 3.72949 4.22566C4.01777 4.25378 3.85839 3.73816 3.96386 3.64441C3.98261 3.59753 4.01777 3.59753 4.02011 3.65612V4.09441C4.02011 4.23503 4.11386 4.27722 4.18418 4.30534C4.25918 4.30066 4.31074 4.30534 4.33886 4.37566L4.37637 5.13269C4.37637 5.13269 4.5498 5.18425 4.55918 4.70847C4.56621 4.42722 4.50293 4.19519 4.54043 4.14128C4.54043 4.08737 4.61074 4.08503 4.65762 4.11081C4.73262 4.16237 4.76543 4.228 4.88262 4.20456C5.06075 4.153 5.16856 4.06628 5.1709 3.93034C5.16738 3.79675 5.13959 3.66492 5.08887 3.54128C5.09825 3.51784 5.05606 3.45456 5.06543 3.43112C5.0959 3.48269 5.14512 3.478 5.1545 3.43112C5.12403 3.33269 5.07715 3.23659 5.00215 3.19675C4.93887 3.1405 4.84512 3.14987 4.81465 3.26706C4.7959 3.40066 4.86152 3.55769 4.95762 3.68894C4.97871 3.73816 5.00684 3.82253 4.99512 3.89753C4.94356 3.928 4.89199 3.91394 4.84746 3.86941C4.84746 3.86941 4.70684 3.76394 4.70684 3.73816C4.74434 3.49909 4.71387 3.47097 4.69277 3.403C4.67871 3.31159 4.63418 3.28112 4.59902 3.22019C4.56387 3.18269 4.51699 3.18269 4.49355 3.22019C4.43027 3.328 4.46074 3.56003 4.50527 3.6655C4.53809 3.76159 4.5873 3.82253 4.56387 3.82253C4.54512 3.87644 4.50527 3.86237 4.4748 3.79909C4.4405 3.66592 4.42395 3.52879 4.42558 3.39128C4.41387 3.28347 4.3998 3.05378 4.32715 2.99284C4.28496 2.93659 4.22168 2.96472 4.19824 3.01628C4.19205 3.12098 4.1944 3.22602 4.20527 3.33034C4.25215 3.50378 4.26855 3.65847 4.29199 3.83425C4.29902 4.07097 4.15605 3.93737 4.16308 3.81784C4.19383 3.66757 4.19143 3.5124 4.15605 3.36316C4.13261 3.30222 4.10683 3.28816 4.04824 3.29753C4.00371 3.29753 3.88886 3.42175 3.85605 3.63269C3.85605 3.63269 3.82792 3.7405 3.8162 3.83659C3.7998 3.94441 3.72949 4.02409 3.67792 3.82253C3.63573 3.67487 3.60761 3.31628 3.5373 3.40066H3.53495Z" fill="white"/>
<path fill-rule="evenodd" clip-rule="evenodd" d="M4.32031 4.55166L3.57031 4.9126C3.57734 4.7415 3.92422 4.43447 4.16328 4.43213C4.31563 4.43447 4.27813 4.49072 4.31797 4.55166H4.32031Z" fill="white"/>
<path fill-rule="evenodd" clip-rule="evenodd" d="M4.18685 4.78578C3.7931 5.80532 5.11264 5.94829 5.26029 4.82797C5.27435 4.78109 5.3306 4.73656 5.33998 4.81156C5.30951 5.82641 4.3181 5.89438 4.14935 5.57563C4.10965 5.46595 4.08981 5.35007 4.09076 5.23344C4.06732 5.03422 3.96185 5.11156 3.94544 5.30844C3.92904 5.41859 3.93373 5.44906 3.93373 5.55453C3.98529 6.3561 5.26264 6.01157 5.47123 5.35063C5.58139 4.985 5.45248 4.71547 5.51107 4.71547C5.63764 4.8514 5.81576 4.73422 5.85561 4.68734C5.87201 4.6639 5.9142 4.6475 5.94233 4.67797C6.04076 4.74828 6.2142 4.71547 6.2517 4.59125C6.2728 4.46703 6.2892 4.34046 6.29389 4.21156C6.21186 4.23499 6.15326 4.2514 6.14623 4.28656L6.12983 4.39437C6.12279 4.42953 6.05483 4.42953 6.05014 4.38499C6.01967 4.24437 5.89311 4.22796 5.81576 4.44359C5.76654 4.48578 5.67279 4.49515 5.66342 4.43187C5.67514 4.28656 5.61654 4.26781 5.49936 4.33578L5.38685 3.48733C5.43373 3.48733 5.4806 3.52249 5.52514 3.46624C5.47826 3.31389 5.37279 3.00452 5.3142 2.98108C5.28842 2.94827 5.26498 2.96936 5.22748 2.97874C5.16654 2.99749 5.11029 3.04905 5.12904 3.15217C5.19935 3.5928 5.24623 3.92796 5.31889 4.37093C5.3306 4.42015 5.28842 4.48812 5.23217 4.48109C5.13842 4.41781 5.11498 4.2889 4.95092 4.29359C4.83373 4.29359 4.70248 4.42249 4.68607 4.54437C4.66498 4.64281 4.65795 4.74828 4.68607 4.83265C4.7681 4.93109 4.86654 4.92172 4.95326 4.90062C5.02357 4.87015 5.08217 4.79984 5.10795 4.81625C5.12435 4.83734 5.11029 5.07172 4.77279 5.24984C4.56888 5.34359 4.40482 5.36234 4.3181 5.19594C4.2642 5.09047 4.32279 4.69437 4.18685 4.78578Z" fill="white"/>
<path fill-rule="evenodd" clip-rule="evenodd" d="M5.86703 3.74992C5.94437 3.7218 6.31937 3.29055 6.31937 3.29055L6.26312 3.24367C6.24203 3.22727 6.24437 3.20852 6.26312 3.19211C6.35687 3.13586 6.3264 3.01867 6.27953 2.96242C6.2477 2.94691 6.2127 2.93904 6.1773 2.93945C6.1419 2.93986 6.10708 2.94853 6.07562 2.96477C6.01 3.02805 5.99593 3.12883 6.0475 3.18977C6.09671 3.2132 6.14593 3.26477 6.11312 3.29289C5.95843 3.45695 5.5389 3.74055 5.58812 3.74992C5.59749 3.76399 5.85765 3.76399 5.86468 3.74992H5.86703ZM3.59358 5.27336C3.45296 5.49836 3.44124 5.83352 3.51858 5.9343C3.56077 5.98117 3.62874 6.00227 3.67796 5.98586C3.76702 5.94836 3.80686 5.76789 3.78577 5.70461C3.7553 5.65774 3.73186 5.65071 3.7014 5.68821C3.64046 5.81477 3.61468 5.72805 3.60765 5.65774C3.60093 5.53866 3.60721 5.4192 3.6264 5.30149C3.6428 5.20305 3.6264 5.23117 3.59358 5.27336ZM9.61938 4.91477C9.48344 4.61945 9.2936 4.32883 9.235 4.21867C9.05236 3.92993 8.85846 3.64847 8.65375 3.37492C8.50844 3.20148 8.89282 3.44758 8.60688 3.1007L8.39828 2.92492C8.35141 2.89211 8.23891 2.83117 8.22016 2.92961C8.21078 3.01867 8.21547 3.06555 8.22953 3.1382C8.24125 3.18508 8.31156 3.26711 8.34672 3.31398C8.82722 3.95042 9.24925 4.62896 9.60766 5.34133C9.6686 5.31086 9.65454 4.96399 9.61938 4.91477Z" fill="white"/>
<path fill-rule="evenodd" clip-rule="evenodd" d="M9.02162 5.89437C8.9935 5.92484 9.08725 6.05375 9.20912 6.05375C9.41069 6.03031 9.58881 5.91781 9.75287 5.61781C9.81954 5.51801 9.86207 5.40407 9.87709 5.28499C9.89694 4.71603 9.85133 4.14666 9.74115 3.58811C9.73412 3.54124 9.74115 3.48499 9.74584 3.47093C9.7599 3.45452 9.80443 3.47093 9.82787 3.43108C9.86303 3.39593 9.73412 3.10296 9.66381 2.9928C9.64037 2.94124 9.62865 2.90843 9.58647 2.99749C9.53556 3.09576 9.51131 3.20567 9.51615 3.31624C9.61225 3.98421 9.64272 4.5678 9.70365 5.23577C9.71069 5.3014 9.70131 5.39515 9.65678 5.43265C9.47993 5.62956 9.26349 5.7869 9.02162 5.89437ZM11.7521 5.89203C11.6068 5.9764 11.6068 6.0725 11.724 6.07484C11.9255 6.0514 12.1646 6.035 12.3286 5.78656C12.3866 5.66954 12.4201 5.54195 12.4271 5.41156C12.4566 4.85135 12.4196 4.28962 12.3169 3.73811C12.3122 3.69124 12.2911 3.58108 12.2982 3.56702C12.3122 3.53421 12.3779 3.56936 12.4013 3.53186C12.4341 3.49671 12.2302 3.23421 12.1576 3.12171C12.1341 3.07014 12.1247 3.03733 12.0802 3.12639C12.033 3.22557 12.0182 3.3371 12.038 3.44515C12.1458 4.17171 12.2255 4.71546 12.2419 5.35765C12.2326 5.41859 12.2302 5.4514 12.2021 5.52874C12.1388 5.60843 12.0685 5.71156 12.0029 5.76078C11.9372 5.80765 11.7966 5.85453 11.7521 5.89203Z" fill="white"/>
<path fill-rule="evenodd" clip-rule="evenodd" d="M11.8601 5.24316C11.8601 5.07207 11.8625 4.92675 11.8578 4.79785C11.8563 4.68868 11.8324 4.58098 11.7875 4.48144C11.7453 4.38535 11.7711 4.30801 11.75 4.20488C11.7312 4.10176 11.7359 3.94707 11.7078 3.82754C11.6984 3.78066 11.675 3.62832 11.682 3.61192C11.6937 3.5791 11.7383 3.61192 11.7617 3.57442C11.7945 3.53926 11.6445 3.15254 11.5695 3.04239C11.5437 2.99317 11.4922 3.00957 11.4336 3.08926C11.375 3.14317 11.3961 3.2627 11.4195 3.37754C11.5625 4.13457 11.6726 4.82129 11.6492 5.54081C11.6398 5.60175 11.8601 5.358 11.8601 5.24316ZM10.7891 4.30566C10.6977 4.30097 10.5078 4.12519 10.4516 4.02441C10.4424 3.99978 10.4384 3.97349 10.44 3.94724C10.4417 3.921 10.4488 3.89539 10.4609 3.87207C10.4961 3.84863 10.5477 3.8252 10.5875 3.84863C10.5875 3.84863 10.6273 3.90488 10.6203 3.91191C10.6672 3.93535 10.6906 3.92363 10.6953 3.90254C10.6977 3.86738 10.6812 3.84629 10.6812 3.80879C10.7023 3.70098 10.8219 3.68457 10.8687 3.75254C10.9016 3.79473 10.9156 3.88145 10.918 3.94004C10.918 3.97051 10.8711 3.93535 10.8406 3.94004C10.8148 3.94941 10.8078 3.98223 10.8055 4.01035C10.8008 4.08769 10.7914 4.21191 10.7891 4.30332V4.30566ZM9.10625 5.43066C9.12969 5.20097 9.09687 4.79082 9.09453 4.65488C9.08199 4.30528 9.05306 3.95646 9.00781 3.60957C8.97969 3.4127 9.0875 3.63066 9.07344 3.51582C9.03828 3.32129 8.93047 3.1877 8.80156 3.01192C8.76172 2.95332 8.76172 2.94161 8.69844 3.02598C8.62812 3.18301 8.68906 3.29317 8.70781 3.41738C8.79922 3.82051 8.85312 4.19082 8.8789 4.55879C8.90589 4.94103 8.90902 5.32459 8.88828 5.70722C8.95859 5.70956 9.0664 5.59706 9.10625 5.43066Z" fill="white"/>
<path fill-rule="evenodd" clip-rule="evenodd" d="M12.1721 5.0625C12.0104 4.79062 11.769 4.5 11.7033 4.38984C11.486 4.08634 11.2577 3.79083 11.019 3.5039C10.8198 3.29296 11.1127 3.46874 10.9815 3.30468C10.8713 3.18515 10.8409 3.1453 10.7448 3.07265C10.6979 3.04218 10.6698 2.98359 10.651 3.08437C10.6435 3.17166 10.642 3.25936 10.6463 3.34687C10.6463 3.38671 10.6885 3.46406 10.726 3.51093C11.2112 4.10859 11.7432 4.71797 12.1697 5.48437C12.2307 5.4539 12.2096 5.10937 12.1697 5.0625H12.1721Z" fill="white"/>
<path fill-rule="evenodd" clip-rule="evenodd" d="M4.87352 4.56346C4.8618 4.58456 4.83602 4.61034 4.8454 4.63612C4.8618 4.65956 4.87821 4.66659 4.90634 4.66659C4.93212 4.66659 4.96962 4.67362 4.97665 4.65956C4.99072 4.64315 5.00009 4.61268 4.99072 4.58221C4.96259 4.5119 4.88759 4.54003 4.87352 4.56346Z" fill="#1BA400"/>
<path fill-rule="evenodd" clip-rule="evenodd" d="M10.3016 8.49594C10.5172 8.50532 10.6578 8.50766 10.8477 8.52875L11.0727 8.50532C11.3211 8.48188 11.3305 8.85922 11.3305 8.85922C11.3305 9.08188 11.2438 9.0936 11.1336 9.11704C11.0703 9.12641 11.0399 9.07954 11.0047 9.03266C10.9517 9.04965 10.8953 9.05288 10.8407 9.04204C10.7493 9.03735 10.6602 9.03735 10.5711 9.03032C10.4774 9.02329 10.4258 9.04204 10.3297 9.03266C10.311 9.06313 10.2828 9.10532 10.2266 9.0936C10.1797 9.08657 10.1211 8.95297 10.1375 8.84751C10.1727 8.7725 10.161 8.79829 10.161 8.76547C9.27972 8.74204 8.39144 8.70219 7.52894 8.71391C6.85393 8.71625 6.18831 8.74438 5.52034 8.7725C5.16409 8.76782 4.89221 8.71157 4.70471 8.43735C4.72346 8.43735 5.61409 8.48657 5.87425 8.47016C6.35471 8.46547 6.79534 8.42563 7.28519 8.41157C8.25081 8.42797 9.20941 8.42797 10.175 8.49594C10.0813 8.43266 10.0813 8.285 10.2219 8.2475C10.2336 8.23813 10.2407 8.32016 10.2618 8.31782C10.3766 8.31079 10.325 8.46547 10.3016 8.49594ZM6.42034 3.17093C6.27503 3.58812 6.50472 4.0475 6.66409 4.00297C6.78128 4.04984 6.85159 3.82953 6.89847 3.59046C6.93362 3.5225 6.95706 3.51546 6.97347 3.55062C6.96878 3.86937 6.9969 3.94203 7.07893 4.03812C7.26175 4.17875 7.41409 4.05687 7.42581 4.04515L7.56644 3.90218C7.59925 3.86703 7.64144 3.86703 7.68597 3.89515C7.7305 3.935 7.72347 4.00297 7.81722 4.04984C7.8969 4.08265 8.06331 4.05922 8.10316 3.99125C8.15472 3.89984 8.16878 3.86937 8.19222 3.83656C8.22972 3.78734 8.293 3.80843 8.293 3.82484C8.28597 3.85297 8.24847 3.87875 8.27425 3.93031C8.32112 3.96312 8.3305 3.94203 8.35628 3.935C8.45003 3.88812 8.52034 3.68656 8.52034 3.68656C8.52269 3.61156 8.4805 3.61625 8.45237 3.635L8.37972 3.68422C8.33284 3.69125 8.24612 3.72172 8.20159 3.65375C8.15706 3.57406 8.15706 3.45921 8.12425 3.37718C8.12425 3.3725 8.06331 3.24828 8.11956 3.24125C8.14769 3.24593 8.20628 3.26234 8.21566 3.21312C8.24378 3.1639 8.15472 3.02562 8.09144 2.95531C8.03753 2.89671 7.96253 2.88968 7.88987 2.95062C7.83831 2.9975 7.84534 3.04906 7.83597 3.09828C7.82708 3.13355 7.82669 3.17043 7.83484 3.20588C7.84299 3.24133 7.85944 3.27434 7.88284 3.30218C7.93441 3.40062 8.02581 3.52953 7.99534 3.71234C7.99534 3.71234 7.94144 3.79672 7.84769 3.785C7.80784 3.77797 7.74456 3.76156 7.71175 3.50843C7.68597 3.32093 7.71644 3.05375 7.63675 2.92953C7.60628 2.85218 7.58519 2.77953 7.51487 2.90843C7.49612 2.96 7.41409 3.03734 7.47269 3.19437C7.52813 3.33588 7.54433 3.48973 7.51956 3.63968C7.4844 3.69125 7.47737 3.70765 7.43284 3.75687C7.3719 3.82718 7.30394 3.80843 7.25237 3.78265C7.2055 3.75218 7.168 3.73578 7.14456 3.63031C7.14925 3.46625 7.15862 3.19671 7.12815 3.14046C7.08362 3.0514 7.01097 3.08421 6.9805 3.11234C6.84108 3.26722 6.74772 3.45799 6.71097 3.66312C6.66878 3.79906 6.62425 3.75922 6.59378 3.70531C6.51878 3.635 6.51175 3.07953 6.42034 3.17093Z" fill="white"/>
<path fill-rule="evenodd" clip-rule="evenodd" d="M6.86077 4.08023C6.92874 4.03336 6.89827 4.00055 6.99671 4.09898C7.12377 4.3238 7.19754 4.57477 7.21234 4.83258C7.20765 4.89352 7.24984 4.93102 7.27093 4.91695C7.28031 4.77633 7.62484 4.57945 7.94124 4.55133C7.98812 4.53961 7.96468 4.4482 7.97171 4.40133C7.95296 4.22555 8.07015 4.06617 8.23421 4.05445C8.45921 4.08726 8.53421 4.2068 8.5389 4.38726C8.51312 4.73883 8.14749 4.79742 7.94359 4.82555C7.91312 4.83727 7.89906 4.85133 7.94359 4.86773L8.8014 4.87242L8.84593 4.89586C8.85062 4.9193 8.83187 4.90055 8.79906 4.9568C8.75187 5.0397 8.72234 5.13146 8.71234 5.22633C8.45687 5.3107 8.19203 5.34352 7.92484 5.37867C7.83109 5.42555 7.78421 5.48883 7.80296 5.55914C7.83578 5.63649 8.04203 5.71617 8.04203 5.71852C8.08187 5.74195 8.1264 5.80055 8.03031 5.92008C7.61312 5.90133 7.28734 5.7232 7.17484 5.47242C7.14202 5.44664 7.10452 5.47242 7.08109 5.50524C6.91702 5.71617 6.75765 5.90367 6.47874 6.0068C6.31468 6.04899 6.14358 5.98102 6.0639 5.87321C6.00999 5.80992 6.01233 5.74195 5.99358 5.72789C5.90218 5.76774 5.12874 6.09586 5.22718 5.94117C5.41468 5.74195 5.7428 5.59195 6.02874 5.39508C6.04983 5.32711 6.08733 5.10211 6.19983 5.02945C6.20687 5.02945 6.18343 5.1607 6.18577 5.21695C6.18577 5.26383 6.18109 5.28024 6.19046 5.26852C6.21155 5.2568 6.55843 4.98258 6.5889 4.8982C6.62171 4.85133 6.59593 4.72945 6.59593 4.72477C6.5303 4.55602 6.4389 4.54195 6.40609 4.45758C6.37562 4.34742 6.38968 4.22086 6.45296 4.18336C6.50921 4.13414 6.57484 4.13883 6.63812 4.19508C6.70843 4.25836 6.76937 4.38258 6.78812 4.47398C6.7764 4.50914 6.69437 4.45055 6.67093 4.46695C6.71604 4.51879 6.74604 4.58203 6.75765 4.64977C6.80452 4.84195 6.79046 4.91695 6.74359 5.04117C6.5889 5.36695 6.39202 5.46305 6.21859 5.58492C6.2139 5.58492 6.21155 5.66695 6.27483 5.71149C6.29827 5.73492 6.38968 5.74664 6.49515 5.71149C6.72047 5.58635 6.90267 5.39598 7.01781 5.16539C7.03772 4.98993 7.01851 4.81223 6.96156 4.64508C6.89359 4.48805 6.8139 4.26539 6.8139 4.2607C6.81155 4.16226 6.81859 4.12945 6.86077 4.08023ZM4.61546 3.17554C4.71389 3.22242 4.9014 3.20133 4.89202 3.04195L4.88733 2.96929C4.86858 2.92242 4.81233 2.93414 4.80061 2.98101C4.79593 2.99742 4.80764 3.0232 4.79358 3.03023C4.78421 3.03961 4.75374 3.03492 4.75374 2.99039C4.75374 2.97633 4.74436 2.96226 4.73733 2.95289C4.73265 2.9482 4.72796 2.9482 4.71624 2.9482C4.70218 2.9482 4.70218 2.95054 4.69514 2.96226C4.6928 2.97398 4.68811 2.9857 4.68811 2.99976C4.68811 3.01617 4.67874 3.02086 4.66936 3.0232C4.6553 3.0232 4.65764 3.0232 4.64593 3.01851C4.64124 3.01148 4.63421 3.00914 4.63421 2.99508L4.62718 2.95758C4.62249 2.95054 4.61311 2.94586 4.60374 2.94351C4.54983 2.94351 4.54514 3.00679 4.54983 3.03023C4.54514 3.03492 4.5428 3.14508 4.61546 3.17554Z" fill="white"/>
<path fill-rule="evenodd" clip-rule="evenodd" d="M7.51019 4.39921C7.60863 4.44608 7.84535 4.4203 7.78675 4.26796L7.78207 4.19296C7.76097 4.14608 7.70707 4.1578 7.69535 4.20702C7.69066 4.22108 7.70238 4.24686 7.68597 4.25389C7.67894 4.26327 7.64613 4.25858 7.64847 4.21639C7.64847 4.20233 7.6391 4.18592 7.63207 4.17655C7.62504 4.17421 7.62269 4.17186 7.60863 4.17186C7.59691 4.17186 7.59691 4.17655 7.58988 4.18827C7.58519 4.19999 7.58285 4.21171 7.58285 4.22577C7.5805 4.23983 7.57347 4.24452 7.56175 4.24921C7.55004 4.24921 7.55238 4.24921 7.543 4.24218C7.53597 4.23514 7.52894 4.2328 7.52894 4.22108L7.52191 4.18358C7.51722 4.17655 7.50785 4.17186 7.49847 4.16952C7.44457 4.16952 7.43988 4.23046 7.44222 4.25389C7.43988 4.25858 7.43753 4.37108 7.51254 4.39921H7.51019ZM9.1977 3.89295C9.29614 3.93983 9.48129 3.91874 9.47426 3.7617L9.46958 3.6867C9.44848 3.63983 9.39457 3.65155 9.38286 3.69842C9.37817 3.71483 9.38989 3.74061 9.37348 3.74998C9.36645 3.75702 9.33364 3.75233 9.33598 3.7078C9.33598 3.69373 9.32661 3.67967 9.31957 3.6703C9.31254 3.66561 9.3102 3.66561 9.29614 3.66561C9.28442 3.66561 9.28442 3.6703 9.27739 3.68202L9.27036 3.71717C9.26801 3.73358 9.26098 3.74061 9.24926 3.74061C9.23754 3.74061 9.23989 3.74061 9.23051 3.73592C9.22348 3.72889 9.21645 3.72655 9.21645 3.71483C9.21645 3.70311 9.21411 3.68436 9.20942 3.67498C9.20473 3.66795 9.19536 3.66561 9.18598 3.66327C9.13207 3.66327 9.12739 3.7242 9.12973 3.74764C9.12739 3.75233 9.12504 3.86249 9.20004 3.89295H9.1977ZM10.0719 5.16562C9.90083 5.36015 9.97583 5.68125 10.0157 5.75156C10.0719 5.86406 10.1165 5.93672 10.2266 5.99297C10.3274 6.06562 10.4071 6.02109 10.4493 5.96953C10.55 5.86406 10.5524 5.59453 10.5993 5.54296C10.6321 5.44453 10.7165 5.46093 10.7563 5.50546C10.7936 5.55838 10.8435 5.60109 10.9016 5.62968C10.9954 5.71171 11.1079 5.72812 11.2204 5.65312C11.2954 5.60859 11.3446 5.55468 11.3891 5.44453C11.436 5.31328 11.4126 4.7039 11.4008 4.34296L11.3024 3.83905C11.3024 3.83436 11.2907 3.59998 11.279 3.54608C11.279 3.52264 11.2719 3.51561 11.2954 3.51795C11.3211 3.54139 11.3235 3.54139 11.3422 3.54842C11.3657 3.55311 11.3891 3.50858 11.3727 3.47108L11.1383 3.03514C11.1196 3.01639 11.0938 2.99764 11.0633 3.03982C11.0454 3.0561 11.031 3.07601 11.0213 3.09823C11.0117 3.12045 11.0068 3.14449 11.0071 3.16873C11.0141 3.27186 11.0305 3.37733 11.0376 3.48045L11.1313 4.01014C11.1618 4.38514 11.1688 4.69452 11.1993 5.07187C11.1946 5.23124 11.1454 5.36953 11.0985 5.39062C11.0985 5.39062 11.0282 5.43046 10.9813 5.38593C10.9461 5.37187 10.8079 5.1539 10.8079 5.1539C10.7375 5.09062 10.6907 5.10702 10.6415 5.1539C10.5008 5.28984 10.4399 5.53828 10.3438 5.71171C10.3204 5.75156 10.25 5.78203 10.175 5.70937C9.98286 5.44453 10.0954 5.06952 10.0719 5.16562ZM9.24223 2.96951C9.33129 3.00467 9.39223 3.18514 9.37348 3.2742C9.35473 3.37967 9.30786 3.49686 9.27504 3.4828C9.23754 3.46873 9.29848 3.37498 9.26332 3.27654C9.24457 3.21092 9.1227 3.09373 9.13676 3.06092C9.11332 2.98826 9.18832 2.95545 9.24223 2.96717V2.96951Z" fill="white"/>
<path fill-rule="evenodd" clip-rule="evenodd" d="M10.3578 5.27362C10.3742 5.058 10.3438 4.92675 10.3391 4.80019C10.3344 4.67362 10.1961 3.708 10.168 3.61425C10.1328 3.43144 10.3016 3.59081 10.2828 3.483C10.2242 3.35175 10.0813 3.15722 10.0367 3.04237C10.0086 2.9955 10.0203 2.94862 9.95939 3.03065C9.90691 3.17448 9.88846 3.3285 9.90548 3.48065C10.0508 4.23769 10.1984 4.86581 10.175 5.58534C10.2453 5.58534 10.3227 5.42831 10.3578 5.27362ZM11.8672 3.2744C11.9492 3.31425 11.9961 3.53925 11.9867 3.60253C11.9703 3.71972 11.9281 3.84628 11.8977 3.82987C11.8625 3.81581 11.9047 3.65644 11.8883 3.60722C11.8695 3.5369 11.7594 3.41034 11.7711 3.37284C11.7477 3.29315 11.818 3.26034 11.8672 3.2744ZM5.87423 4.86581C5.95157 4.89628 5.99845 5.06034 5.99142 5.10722C5.97267 5.19394 5.93282 5.28769 5.90236 5.27362C5.87189 5.26425 5.90939 5.14706 5.89532 5.10956C5.88829 5.02284 5.78048 4.97597 5.78282 4.93847C5.76407 4.86815 5.8297 4.85644 5.87657 4.86581H5.87423Z" fill="white"/>
<path fill-rule="evenodd" clip-rule="evenodd" d="M7.73987 5.11397C7.8383 5.11865 7.88752 5.19834 7.79612 5.23115C7.70237 5.26162 7.61565 5.2874 7.6133 5.41865C7.64846 5.60616 7.56643 5.54053 7.51955 5.51709C7.46331 5.4749 7.30393 5.37647 7.28049 5.16553C7.27815 5.11631 7.31799 5.07178 7.38127 5.07178C7.47502 5.09756 7.61565 5.0999 7.73987 5.11397Z" fill="#1B9D00"/>
<path fill-rule="evenodd" clip-rule="evenodd" d="M3.81387 2.91584C3.92637 2.94865 3.9334 3.1174 3.92637 3.16662C3.90996 3.25568 3.87012 3.35178 3.842 3.34006C3.80918 3.32834 3.842 3.20646 3.82559 3.16896C3.80918 3.1174 3.71309 3.01896 3.72246 2.99084C3.70137 2.93224 3.76934 2.90412 3.81387 2.91584ZM6.06153 3.70334C5.97247 3.75022 5.93965 3.89084 5.99356 3.97522C6.04512 4.04553 6.12481 4.01975 6.13418 4.01975C6.2209 4.02912 6.27247 3.85803 6.27247 3.85803C6.27247 3.85803 6.27481 3.81115 6.17403 3.90256C6.1295 3.90959 6.12715 3.89319 6.11543 3.86975C6.1047 3.82513 6.10882 3.77822 6.12715 3.73615C6.14356 3.69397 6.11075 3.67522 6.06153 3.70334ZM6.71778 2.85021C6.6709 2.88068 6.58418 2.97209 6.58184 3.07521C6.5795 3.13381 6.56778 3.13381 6.60528 3.16896C6.63575 3.21115 6.66153 3.20881 6.71778 3.17834C6.73179 3.16952 6.74382 3.15788 6.7531 3.14416C6.76238 3.13044 6.76871 3.11494 6.77168 3.09865C6.78575 3.03303 6.70137 3.13146 6.692 3.05646C6.67325 2.98615 6.72715 2.95803 6.77872 2.8924C6.77872 2.84552 6.77872 2.81506 6.71543 2.85021H6.71778ZM7.24278 2.94396C7.22212 3.02931 7.20956 3.11641 7.20528 3.20412C7.19122 3.26975 7.27559 3.29787 7.31075 3.2135C7.367 3.06115 7.367 2.99553 7.37168 2.93224C7.35528 2.83146 7.28731 2.83381 7.24278 2.94396ZM10.5709 4.6385C10.5803 4.62678 11.0397 4.301 11.0397 4.301C11.0865 4.28459 11.0748 4.46975 11.0537 4.46741C10.9113 4.60471 10.7474 4.71791 10.5686 4.80256C10.5451 4.81897 10.524 4.67835 10.5686 4.6385H10.5709ZM10.9857 4.63381C11.0678 4.67366 11.1006 4.91038 11.0912 4.97366C11.0912 5.10022 11.0139 5.19866 10.9811 5.1846C10.9482 5.16819 10.9857 5.02757 10.9693 4.97835C10.9506 4.90803 10.8826 4.77913 10.8943 4.74163C10.8709 4.66194 10.9365 4.61975 10.9881 4.63381H10.9857ZM8.267 5.65101C8.30501 5.60663 8.34922 5.56795 8.39825 5.53616C8.44512 5.51272 8.48731 5.55491 8.48497 5.55257C8.492 5.59944 8.45684 5.63929 8.46856 5.70022C8.47794 5.72366 8.48497 5.75179 8.5295 5.74241C8.60215 5.68382 8.67012 5.67913 8.74044 5.67679C8.79903 5.67913 8.80137 5.77523 8.76387 5.77523C8.63028 5.80335 8.57168 5.84085 8.47559 5.87601C8.42872 5.90413 8.39122 5.86898 8.39122 5.86663C8.39122 5.86429 8.36543 5.84085 8.38184 5.77991C8.38653 5.73304 8.36778 5.70491 8.32559 5.7096C8.29747 5.72835 8.26934 5.73773 8.25528 5.70257C8.24825 5.67913 8.2459 5.66507 8.267 5.65101ZM11.4686 5.77757C11.4873 5.80101 11.5014 5.82444 11.4662 5.86663L11.3795 5.94163C11.3654 5.96507 11.3561 6.00726 11.4029 6.01898C11.4873 6.04241 11.6842 5.91351 11.6842 5.91116C11.717 5.88773 11.7076 5.84085 11.7029 5.84085C11.6842 5.81976 11.642 5.83382 11.6139 5.82913C11.5998 5.82913 11.5553 5.82444 11.5764 5.78226C11.5921 5.76155 11.6047 5.73865 11.6139 5.71429C11.6256 5.68616 11.6139 5.66741 11.567 5.65101C11.5178 5.64163 11.4967 5.64632 11.4428 5.65101C11.4147 5.65569 11.4053 5.66976 11.3982 5.70491C11.4006 5.75882 11.4334 5.75647 11.4686 5.77523V5.77757Z" fill="white"/>
<path fill-rule="evenodd" clip-rule="evenodd" d="M8.28358 4.44607C8.27186 4.46951 8.22968 4.46951 8.18983 4.44607C8.14999 4.42263 8.12655 4.38513 8.14061 4.36404C8.15468 4.34295 8.19452 4.34295 8.23436 4.36404C8.27421 4.38513 8.2953 4.42498 8.28358 4.44607ZM6.19765 3.18983C6.17421 3.19686 6.1414 3.17577 6.12733 3.14295C6.11327 3.11014 6.1203 3.08202 6.14374 3.07499C6.16718 3.06795 6.19764 3.09139 6.21405 3.12186C6.23046 3.15233 6.22108 3.18514 6.1953 3.19217L6.19765 3.18983Z" fill="#259F00"/>
<path fill-rule="evenodd" clip-rule="evenodd" d="M10.3251 8.78906C10.5454 8.79844 10.7517 8.78906 10.9696 8.80078C11.0095 8.83593 10.9813 8.91795 10.9556 8.91326L10.7727 8.90623C10.7704 8.83593 10.5923 8.84765 10.597 8.90857C10.5009 8.92029 10.4141 8.90623 10.3157 8.90154C10.2876 8.86639 10.2923 8.80312 10.3251 8.78906Z" fill="#209000"/>
</g>
<defs>
<clipPath id="clip0_6280_59">
<rect width="16" height="12" fill="white"/>
</clipPath>
</defs>
</svg>
