<svg width="16" height="12" viewBox="0 0 16 12" fill="none" xmlns="http://www.w3.org/2000/svg">
<g clip-path="url(#clip0_4669_25)">
<path d="M19 0H0V12H19V0Z" fill="#EE1C25"/>
<path d="M3.5 1L5.04508 5L1 2.52786H6L1.95492 5L3.5 1Z" fill="#FFFF00"/>
<path d="M7.20302 0.692227L7.07613 2.05623L6.3325 0.882074L7.66261 1.4179L6.25408 1.72508L7.20302 0.692227Z" fill="#FFFF00"/>
<path d="M8.97073 2.29366L8.29507 3.50413L8.09066 2.1486L9.09705 3.13142L7.67308 2.89671L8.97073 2.29366Z" fill="#FFFF00"/>
<path d="M9.13918 4.7071L8.00106 5.55114L8.39814 4.23454L8.89377 5.5208L7.69474 4.75619L9.13918 4.7071Z" fill="#FFFF00"/>
<path d="M7.17377 5.72056L7.10669 7.08837L6.31231 5.94444L7.66472 6.42755L6.27086 6.7898L7.17377 5.72056Z" fill="#FFFF00"/>
</g>
<defs>
<clipPath id="clip0_4669_25">
<rect width="16" height="12" fill="white"/>
</clipPath>
</defs>
</svg>
