<svg xmlns="http://www.w3.org/2000/svg" xmlns:xlink="http://www.w3.org/1999/xlink" width="632" height="138"><path d="M76.4 60.3c-.7-1.4-1.1-2.7-1.9-3.6-3.2-3.6-9.8-3.4-15.7.3-5.1 3.2-6.9 7.3-5.1 12.1 2.4 6.6 7.6 10.1 14 11.7 13.4 3.4 26.2 1.7 37.6-6.5 12.4-8.8 13.5-22.5 2.9-33.4-19.4-20-58.6-17.7-75.4 4.4-12.1 15.9-8.6 38.2 8.7 48.1 7.9 4.5 17.2 6.9 26.1 9.3 5.2 1.4 11 .5 16.3 1.6 5.3 1.1 10.3 3.6 16 5.7-.3-6.8 4.2-9.4 9.4-12 3.8-1.9 7.1-4.9 10.4-7.6 3.9-3.2 8.5-3.4 11.6-.2 3.2 3.3 3.1 7.9-.7 11.6-2.8 2.8-5.8 5.7-9.3 7.5-5.1 2.5-7.5 6.1-7.5 11.6 0 .7-.2 1.3-.4 2-1.5 5.7-6.2 8.7-11.3 5.8-12.5-7-26.2-8.7-40-11.1-9.2-1.6-18.5-4.8-26.7-9.3C5.8 92.1 1.1 53.7 25.2 29.9c24-23.6 66.6-24.7 91.7-2.4 20.3 18.1 18.5 45.7-4.2 60.7-3 2-6.3 3.8-9.6 5.2-14.8 6.1-29.9 6.8-44.8.7-5.1-2.1-10.1-5.5-13.7-9.6-14.1-16.1-7.6-38 13.1-44.3 9.6-2.9 18.9-2.7 26.8 4.2 6 5.3 8.9 12 6.5 20.2-2 6.9-6.5 11.4-13.9 12.7-5.9 1.1-11.6-2.5-12.1-7.6-.6-5.1 2.8-8.2 9.6-8.7.4 0 .6-.2 1.8-.7zm26.8 54.7c-3.4-1.4-5.5-2.1-7.4-3.1-6.3-3.3-12.8-4.9-20-5.3-12.9-.6-25.3-3.6-36.5-10.7-18.5-11.7-23.1-35.6-10.2-53.1 18.2-24.8 61-27.5 82.1-5.1 11.8 12.5 10.5 28.4-3.4 38.4-13.2 9.5-27.8 11.5-43.2 6.7-6.6-2-12.2-6.2-14.2-13-1-3.4-.8-8.1.7-11.3C54.2 52 63.7 48 70.8 49.8c2.7.7 5.6 2.5 7.3 4.6 1.3 1.5 1.6 4.8.8 6.7-.6 1.4-3.6 1.8-5.4 2.8-1.6.9-4 1.9-4.2 3.1-.3 1.4 1.5 4.5 2.4 4.6 3.4.1 7.5.3 10.2-1.4 8.4-5.4 8.2-17.6-.3-24.3-8.1-6.4-17.1-5.8-26-1.8C47.1 48 41.2 54.3 41 64.3c-.2 10.8 7.3 21.3 19.1 25.5 17.5 6.2 34.5 4.6 50.2-5.5 20.9-13.4 22.7-38.4 4.1-55C90.5 8 49.4 9.5 27 32.5c-21 21.6-16.7 55.7 9.1 71.2 9.6 5.7 20.1 9.2 31.1 10.2 10.9 1 21.2 2.9 31.1 8 10 5.2 10.8 4.6 12.4-6.5.6-4 2.1-6.4 5.8-8.4 4-2.2 7.6-5.4 11.2-8.3 2.1-1.7 3.2-4.1.9-6.4-2.2-2.3-4.4-1.4-6.6.5-2.5 2.2-4.9 4.6-7.8 6.1-6.4 3.1-12.6 6.3-11 16.1z"/><path d="M103.2 115c-1.6-9.8 4.6-13 10.9-16.3 2.9-1.5 5.3-4 7.8-6.1 2.1-1.9 4.3-2.8 6.6-.5 2.3 2.4 1.2 4.7-.9 6.4-3.6 3-7.1 6.1-11.2 8.3-3.6 2-5.2 4.4-5.8 8.4-1.6 11.1-2.4 11.7-12.4 6.5-9.9-5.1-20.2-7-31.1-8-11-1-21.5-4.4-31.1-10.2-25.7-15.3-30-49.4-9-71 22.4-23 63.5-24.5 87.4-3.1 18.6 16.6 16.8 41.5-4.1 55-15.7 10.1-32.7 11.8-50.2 5.5C48.3 85.7 40.7 75.1 41 64.3c.2-10 6.1-16.4 14.6-20.2 8.8-4 17.9-4.7 26 1.8 8.5 6.7 8.7 18.9.3 24.3-2.7 1.7-6.8 1.5-10.2 1.4-.9 0-2.7-3.2-2.4-4.6.2-1.3 2.6-2.2 4.2-3.1 1.8-1 4.8-1.4 5.4-2.8.8-1.9.4-5.2-.8-6.7-1.7-2.1-4.6-3.9-7.3-4.6-7-1.8-16.6 2.2-19.7 8.8-1.5 3.2-1.8 7.9-.7 11.3 2 6.8 7.6 10.9 14.2 13 15.4 4.8 30.1 2.8 43.2-6.8 13.9-10.1 15.1-26 3.4-38.4-21.1-22.4-64-19.7-82.1 5.1C16.3 60.3 20.8 84.2 39.3 96c11.1 7 23.6 10 36.5 10.7 7.2.4 13.7 2 20 5.3 1.9.9 4 1.6 7.4 3z" fill="#fcc949"/><defs><path id="a" d="M429.6 58.6c1.3.7 2.7 1.3 4.3 1.9 1.6.5 3.3 1.1 4.9 1.6 1.7.6 3.3 1.2 4.9 2 1.6.7 3 1.7 4.3 2.8 1.3 1.1 2.3 2.5 3.1 4.1.8 1.6 1.2 3.6 1.2 6 0 2.5-.4 4.9-1.3 7-.9 2.2-2.1 4.1-3.7 5.7s-3.6 2.9-6 3.9c-2.4.9-5.1 1.4-8.1 1.4-1.8 0-3.6-.2-5.3-.5-1.7-.4-3.3-.9-4.9-1.5-1.5-.6-3-1.4-4.3-2.3s-2.5-1.9-3.6-3.1l2.4-4c.2-.3.5-.6.9-.8.3-.2.7-.3 1.1-.3.6 0 1.2.3 1.9.9.7.6 1.6 1.2 2.7 1.9s2.3 1.3 3.8 1.9 3.3.9 5.4.9c1.7 0 3.3-.2 4.7-.7 1.4-.5 2.5-1.1 3.5-2 .9-.9 1.7-1.9 2.2-3.1s.8-2.6.8-4c0-1.7-.4-3-1.1-4.1-.8-1.1-1.8-1.9-3-2.6-1.3-.7-2.7-1.3-4.3-1.8-1.6-.5-3.3-1-4.9-1.6-1.7-.5-3.3-1.2-4.9-1.9-1.6-.7-3-1.6-4.3-2.8-1.3-1.1-2.3-2.6-3-4.3-.8-1.7-1.1-3.9-1.1-6.4 0-2 .4-4 1.2-5.9.8-1.9 1.9-3.6 3.5-5 1.5-1.5 3.4-2.6 5.6-3.5s4.7-1.3 7.6-1.3c3.2 0 6.1.5 8.8 1.5 2.7 1 5 2.5 7 4.4l-2.1 4c-.3.4-.5.8-.8 1s-.7.3-1.1.3c-.5 0-1-.2-1.6-.7-.6-.4-1.4-.9-2.3-1.5-.9-.5-2-1-3.3-1.5-1.3-.4-2.8-.7-4.6-.7-1.7 0-3.1.2-4.4.7-1.3.4-2.3 1-3.1 1.8-.8.8-1.5 1.6-1.9 2.7-.4 1-.7 2.1-.7 3.3 0 1.5.4 2.8 1.2 3.8.4.8 1.4 1.7 2.7 2.4zm81.4 3.9c-.9 2.2-2.3 4.1-4.1 5.8-1.8 1.6-4 2.9-6.7 3.7-2.7.9-5.8 1.3-9.2 1.3h-8.8v20.9h-8.4V37.5H491c3.6 0 6.8.4 9.5 1.3 2.7.8 4.9 2 6.7 3.6 1.8 1.5 3.1 3.4 3.9 5.6.9 2.2 1.3 4.6 1.3 7.3 0 2.6-.4 5-1.4 7.2zm-10.2-15.4c-2.2-2-5.4-3-9.8-3h-8.8v22.6h8.8c2.1 0 4-.3 5.6-.8 1.6-.6 3-1.3 4.1-2.4 1.1-1 1.9-2.2 2.5-3.6.6-1.4.8-3 .8-4.7 0-3.5-1-6.2-3.2-8.1zm32 47.2V37.5h8.5v56.8h-8.5zm75.8 0c-.7 0-1.2-.1-1.6-.4-.4-.2-.9-.6-1.3-1.1l-32.1-41.5c.1.7.1 1.4.1 2.1 0 .7.1 1.3.1 1.9v39h-7.4V37.5h4.4c.7 0 1.3.1 1.7.3s.8.6 1.2 1.2l32.2 41.6c-.1-.8-.1-1.5-.2-2.2s-.1-1.4-.1-2V37.5h7.4v56.8h-4.4z"/></defs><use xlink:href="#a" overflow="visible" fill="#202020"/><g><defs><path id="b" d="M201.5 50.8c-.4.3-1 .5-1.7.5-.5 0-.9-.1-1.3-.3-.4-.2-.9-.5-1.3-.8-.5-.3-1-.6-1.6-1s-1.2-.7-2-1-1.7-.6-2.7-.8-2.3-.3-3.7-.3c-2.2 0-4.2.4-6.1 1.2-1.8.8-3.4 2-4.7 3.6s-2.4 3.5-3.1 5.8c-.7 2.3-1.1 4.9-1.1 7.8 0 3 .4 5.6 1.2 7.9s1.9 4.2 3.3 5.8c1.4 1.6 3 2.8 4.8 3.6 1.8.8 3.8 1.2 5.9 1.2 1.2 0 2.3-.1 3.3-.2s1.9-.3 2.8-.6c.9-.3 1.7-.6 2.5-1.1s1.5-1 2.3-1.8c.3-.3.7-.5 1-.7.4-.2.8-.3 1.1-.3s.6.1 1 .2c.3.1.6.3.9.6l5.3 5.6c-2.3 3-5.2 5.3-8.7 6.9-3.5 1.5-7.6 2.3-12.4 2.3-4.4 0-8.3-.7-11.8-2.2s-6.4-3.5-8.8-6.2c-2.4-2.6-4.3-5.7-5.6-9.3-1.3-3.6-1.9-7.5-1.9-11.7 0-4.3.7-8.3 2.1-11.9 1.4-3.6 3.4-6.7 5.9-9.3s5.6-4.6 9.1-6.1c3.5-1.4 7.4-2.2 11.7-2.2 2.2 0 4.2.2 6.1.6 1.9.4 3.7.9 5.4 1.6 1.7.7 3.2 1.5 4.6 2.4 1.4.9 2.6 2 3.7 3.1l-4.5 6.1-1 1zm60 43.5V69.9h-23.4v24.4h-13.5V36.6h13.5v24.1h23.4V36.6H275v57.7h-13.5zm77.1 0c-1.2 0-2.1-.3-2.8-.8-.7-.5-1.3-1.2-1.6-2.1l-3.4-10.1h-21.9l-3.4 10.1c-.3.7-.8 1.4-1.6 2-.8.6-1.7.9-2.8.9h-10.4L313 36.6h13.7L349 94.3h-10.4zm-16.2-37.8c-.4-1-.8-2.2-1.3-3.5-.4-1.4-.9-2.8-1.3-4.4-.4 1.6-.8 3.1-1.3 4.5-.4 1.4-.9 2.6-1.3 3.6l-5.3 15.7h15.8l-5.3-15.9zm61.8-9.3v47.1h-13.4V47.2h-16.2V36.6h45.8v10.6h-16.2z"/></defs><use xlink:href="#b" overflow="visible" fill="#fcc949"/></g></svg>