<?xml version="1.0" encoding="utf-8"?>
<svg version="1.1" id="Layer_1" xmlns="http://www.w3.org/2000/svg" xmlns:xlink="http://www.w3.org/1999/xlink" x="0px" y="0px" viewBox="0 0 133 59" style="enable-background:new 0 0 133 59;" xml:space="preserve">
	<style>.st0, .st1 {fill:#D75B3D}</style>
<path class="st0" d="M13.7,6.6c-4.3,0-5.9,2-5.9,4c0,6.7,18.8,3.6,18.8,16.3c0,6.2-4.4,10.1-12.9,10.1c-6.1,0-11-3-13-6.2
	c-0.3-0.4-0.4-0.9-0.4-1.4c0-1.5,1.2-2.7,2.7-2.7c1.1,0,1.8,0.6,2.3,1.1c2.2,2.1,4.9,3.9,8.5,3.9c4.7,0,7-1.5,7-4.7
	c0-7.4-18.8-4-18.8-16.3c0-5,3.7-9.3,11.9-9.3c5.2,0,9.6,1.9,11.7,4.8c0.3,0.5,0.5,1,0.5,1.6c0,1.5-1.2,2.7-2.8,2.7
	c-0.7,0-1.4-0.4-2.2-1.1C19.3,7.8,16.6,6.6,13.7,6.6z"/>
<path class="st0" d="M35.1,15.5c1-1.5,3.1-3,6.6-3c7,0,8.7,4.4,8.7,8.8V34c0,1.5-1.2,2.6-2.8,2.6c-1.6,0-2.8-1.1-2.8-2.6V22.3
	c0-2.9-1.2-4.9-4.5-4.9c-3.9,0-5.2,2.2-5.2,5.2V34c0,1.5-1.2,2.6-2.8,2.6c-1.6,0-2.8-1.1-2.8-2.6V2.8c0-1.5,1.2-2.7,2.8-2.7
	c1.5,0,2.8,1.2,2.8,2.7V15.5z"/>
<path class="st0" d="M58,19.3c-0.5,0.4-0.9,0.5-1.5,0.5c-1.3,0-2.4-1.1-2.4-2.4c0-0.6,0.2-1.2,0.7-1.7c1.4-1.6,4-3.3,8.5-3.3
	c6.4,0,10.2,3.1,10.2,8.5v13c0,1.5-1.2,2.7-2.7,2.7c-1.5,0-2.7-1.2-2.7-2.7c-1.4,2.2-3.7,2.9-6.7,2.9c-5,0-8.4-3.1-8.4-7.7
	c0-4.7,3.9-7.2,8.3-7.2h6.7v-0.9c0-2.3-1.7-3.8-4.7-3.8C60.9,17.4,59.3,18.4,58,19.3z M67.9,27.8v-1.4h-6c-2.3,0-3.5,1.1-3.5,2.9
	c0,1.9,1.4,3.1,4.3,3.1C65.3,32.3,67.9,30.6,67.9,27.8z"/>
<path class="st0" d="M107,2.8v27.8c0,0.6,0.6,0.9,1,0.9c1.4,0,2.6,1.1,2.6,2.5c0,1.4-1.1,2.5-2.6,2.5c-4,0-6.5-2.2-6.5-6.5V2.8
	c0-1.5,1.2-2.7,2.8-2.7S107,1.3,107,2.8z"/>
<path class="st0" d="M122.5,12.5c8.7,0,10.3,6.6,10.3,10.1c0,1.9,0,4.1-3.1,4.1h-12.7c0,3.7,2.6,5.3,6,5.3c2.3,0,3.9-0.8,5.1-1.6
	c0.6-0.4,1-0.6,1.7-0.6c1.3,0,2.4,1.1,2.4,2.4c0,0.8-0.4,1.5-0.9,1.9c-0.9,0.8-3.6,2.8-8.3,2.8c-7.2,0-11.6-3.8-11.6-12.3
	C111.4,16.8,115.5,12.5,122.5,12.5z M117.1,22.1h10.2c0-2.5-1.4-4.9-4.8-4.9C119.5,17.2,117.3,18.8,117.1,22.1z"/>
<path class="st0" d="M96.8,41c-2.5-3.8-6.1-6.1-9.3-6.3c1.8,1.4,3.1,3.3,3.3,5.2c-0.8-0.2-1.7-0.3-2.6-0.3c-6.2,0-11.2,4.3-11.2,9.6
	c0,5.3,5,9.6,11.2,9.6c4.5,0,8.4-2.3,10.1-5.6C100,50.2,99.6,45.3,96.8,41z M88.1,54.4c-0.8,0-1.6-0.1-2.3-0.4
	c0.1,1,0.6,1.9,1.5,2.7c-1.7-0.2-3.5-1.6-4.6-3.7c-1.3-2.5-1.3-5.2-0.1-6.7c1.1-1.6,3.2-2.7,5.5-2.7c3.5,0,6.4,2.4,6.4,5.4
	C94.5,52,91.6,54.4,88.1,54.4z"/>
<path class="st0" d="M96.3,18.5c-0.2-0.3-0.4-0.6-0.6-0.9c0.9-1.3,1.4-2.9,1.4-4.6c0-0.8-0.1-1.6-0.3-2.3c-1.1,1.9-3,3.3-5.1,3.8
	c-2.8-1.1-6.1-1-8.9,0.6c-0.5,0.3-1,0.6-1.4,1c-3.7,3-4.8,8.2-2.4,12.3c2.7,4.6,8.8,6.1,13.6,3.4C97.3,29.1,99,23.1,96.3,18.5z
	 M90.7,28.8c-3.2,1.8-7.2,0.8-9-2.2c-1.8-3-0.6-6.9,2.5-8.7c3.2-1.8,7.2-0.8,9,2.2C95,23.1,93.9,27,90.7,28.8z"/>
<ellipse class="st1" cx="85.5" cy="48.8" rx="0.8" ry="0.8"/>
<ellipse class="st1" cx="88.1" cy="48.8" rx="0.8" ry="0.8"/>
<ellipse class="st1" cx="90.8" cy="48.8" rx="0.8" ry="0.8"/>
<g>
	<path class="st1" d="M85.4,21.2c-0.2-0.1-0.3-0.4-0.3-0.5c0-0.3,0.3-0.6,0.7-0.6c0.1,0,0.3,0,0.4,0.1l3.6,2.7
		c0.1,0.1,0.3,0.3,0.3,0.5c0,0.3-0.1,0.4-0.3,0.5l-3.6,2.7c-0.1,0.1-0.2,0.1-0.4,0.1c-0.4,0-0.7-0.3-0.7-0.6c0-0.2,0.1-0.4,0.3-0.5
		l3-2.2L85.4,21.2z"/>
</g>
</svg>