<svg id="Layer_1" xmlns="http://www.w3.org/2000/svg" viewBox="0 0 289.1 31.2"><style>.st1{fill:#5ca5da}</style><path d="M23.5 6c-2.5 2.4-3.9 5.6-3.9 9.1s1.5 6.7 3.9 9.1c1-.4 1.8-1 2.6-1.7-2.2-1.9-3.6-4.5-3.6-7.3s1.3-5.5 3.6-7.3c-.8-.9-1.7-1.5-2.6-1.9m10.8-4.3c-3.1 0-5.9.8-8.4 2.3 1 .6 1.8 1.2 2.6 2 1.7-.8 3.7-1.3 5.8-1.3 6.5 0 11.8 4.7 11.8 10.4 0 1.7-.4 3.4-1.4 4.9l-.4.6 2.2 5.4-5.9-2.2-.6.3c-1.8.8-3.8 1.3-5.8 1.3-2.1 0-4.1-.4-5.8-1.3-.8.8-1.6 1.4-2.6 2 2.4 1.5 5.3 2.3 8.4 2.3 2.2 0 4.5-.4 6.5-1.4L52 31.2l-4.3-10.4c1-1.8 1.5-3.8 1.5-5.8-.1-7.3-6.6-13.3-14.9-13.3" fill="#f3b74e"/><path class="st1" d="M28.5 6c-1 .4-1.8 1-2.6 1.7 2.2 1.9 3.6 4.5 3.6 7.3s-1.3 5.5-3.6 7.3c.8.6 1.6 1.2 2.6 1.7 2.5-2.4 3.9-5.6 3.9-9.1S31 8.4 28.5 6M17.7 1.7C9.5 1.7 2.9 7.7 2.9 15c0 2 .6 4 1.5 5.8L0 31.2l11.2-4.1c2 1 4.3 1.4 6.5 1.4 3.1 0 5.9-.8 8.4-2.3-1-.6-1.8-1.2-2.6-2-1.7.8-3.7 1.3-5.8 1.3-2 0-4-.4-5.8-1.3l-.6-.3-5.9 2.2 2.2-5.4-.4-.6c-1-1.5-1.4-3.2-1.4-4.9C5.7 9.4 11 4.8 17.6 4.8c2.1 0 4.1.4 5.8 1.3.9-.8 1.7-1.4 2.6-2-2.3-1.5-5.2-2.4-8.3-2.4"/><path d="M26 22.5c-.8.6-1.6 1.2-2.6 1.7.8.8 1.6 1.4 2.6 2 1-.6 1.8-1.2 2.6-2-1-.5-1.9-1.1-2.6-1.7M26 4c-1 .6-1.8 1.2-2.6 2 1 .4 1.8 1 2.6 1.7.8-.6 1.6-1.2 2.6-1.7-.8-.7-1.7-1.4-2.6-2" fill="#7a805a"/><path d="M73.2 25.1c.8 0 1.5.7 1.5 1.5 0 .4-.2.8-.4 1.1-2 1.7-4.3 2.5-6.9 2.5-2.9 0-5.4-1-7.5-3.1-2.1-2.1-3.1-4.5-3.1-7.5 0-2.9 1-5.4 3.1-7.5C62 10 64.4 9 67.4 9c2.6 0 4.9.8 6.9 2.6.3.3.5.7.5 1.2 0 .8-.7 1.5-1.5 1.5-.4 0-.7-.1-1-.3-1.4-1.2-3.1-1.9-4.9-1.9-2.1 0-3.9.7-5.3 2.2-1.5 1.5-2.2 3.3-2.2 5.3s.7 3.9 2.2 5.3c1.5 1.5 3.3 2.2 5.3 2.2 1.9 0 3.5-.6 4.9-1.9.3 0 .6-.1.9-.1zM79 1.5c0-.8.6-1.5 1.5-1.5S82 .7 82 1.5v10.3c1.9-1.9 4.1-2.7 6.8-2.7s5 1 7 2.9 2.9 4.3 2.9 7v9.8c0 .8-.7 1.5-1.5 1.5s-1.5-.7-1.5-1.5V19c0-1.9-.7-3.5-2-4.8-1.3-1.3-2.9-2-4.8-2s-3.5.7-4.8 2-2 2.9-2 4.8v9.8c0 .8-.7 1.5-1.5 1.5s-1.5-.7-1.5-1.5V1.5H79zm41.7 25.6c-2.1 2.1-4.7 3.2-7.6 3.2-2.9 0-5.4-1-7.5-3.1-2.1-2.1-3.1-4.5-3.1-7.5s1-5.4 3.1-7.5c2.1-2.1 4.5-3.1 7.5-3.1 2.9 0 5.4 1 7.5 3.1 2.1 2.1 3.1 4.5 3.1 7.5v9.1c0 .8-.7 1.5-1.5 1.5s-1.5-.7-1.5-1.5v-1.7zm-7.5-15c-2.1 0-3.9.7-5.3 2.2s-2.2 3.3-2.2 5.3.7 3.9 2.2 5.3c1.5 1.5 3.3 2.2 5.3 2.2 2.1 0 3.9-.7 5.3-2.2s2.2-3.3 2.2-5.3-.7-3.9-2.2-5.3c-1.5-1.5-3.2-2.2-5.3-2.2zm25.1 15.2c.8 0 1.5.7 1.5 1.5s-.7 1.5-1.5 1.5c-5 0-7.6-2.5-7.6-7.6V12.1h-1.5c-.8 0-1.5-.7-1.5-1.5s.7-1.5 1.5-1.5h1.5V1.5c0-.8.7-1.5 1.5-1.5s1.5.7 1.5 1.5v7.6h3c.8 0 1.5.7 1.5 1.5s-.7 1.5-1.5 1.5h-3v10.6c.1 3 1.6 4.6 4.6 4.6z" fill="#335185"/><path class="st1" d="M143.6 10.6c0-.8.7-1.5 1.5-1.5s1.5.7 1.5 1.5v1.7c2.1-2.1 4.7-3.2 7.6-3.2 1.5 0 2.8.2 4 .7.2.1.4.2.6.4.3.3.4.7.4 1.1 0 .8-.7 1.5-1.5 1.5-.2 0-.4-.1-.7-.2-.9-.4-1.9-.6-3-.6-2.1 0-3.9.7-5.3 2.2s-2.2 3.3-2.2 5.3v9.1c0 .8-.7 1.5-1.5 1.5s-1.5-.7-1.5-1.5v-18zm34.3 16.5c-2.1 2.1-4.7 3.2-7.6 3.2s-5.4-1-7.5-3.1c-2.1-2.1-3.1-4.5-3.1-7.5s1-5.4 3.1-7.5c2.1-2.1 4.5-3.1 7.5-3.1 2.9 0 5.4 1 7.5 3.1 2.1 2.1 3.1 4.5 3.1 7.5v9.1c0 .8-.7 1.5-1.5 1.5s-1.5-.7-1.5-1.5v-1.7zm-7.5-15c-2.1 0-3.9.7-5.3 2.2s-2.2 3.3-2.2 5.3.7 3.9 2.2 5.3c1.5 1.5 3.3 2.2 5.3 2.2 2.1 0 3.9-.7 5.3-2.2 1.5-1.5 2.2-3.3 2.2-5.3s-.7-3.9-2.2-5.3-3.3-2.2-5.3-2.2zm14.5-1.5c0-.8.7-1.5 1.5-1.5s1.5.7 1.5 1.5v1.2c1.9-1.9 4.1-2.7 6.8-2.7s5 1 7 2.9 2.9 4.3 2.9 7v9.8c0 .8-.7 1.5-1.5 1.5s-1.5-.7-1.5-1.5V19c0-1.9-.7-3.5-2-4.8-1.3-1.3-2.9-2-4.8-2s-3.5.7-4.8 2c-1.3 1.3-2 2.9-2 4.8v9.8c0 .8-.7 1.5-1.5 1.5s-1.5-.7-1.5-1.5V10.6h-.1zm41.8-9.1c0-.8.7-1.5 1.5-1.5s1.5.7 1.5 1.5v18.2c0 2.9-1 5.4-3.1 7.5s-4.5 3.1-7.5 3.1c-2.9 0-5.4-1-7.5-3.1-2-2.1-3.1-4.5-3.1-7.5s1-5.4 3.1-7.5 4.5-3.1 7.5-3.1c2.9 0 5.4 1 7.5 3.1l.1.1V1.5zm0 18.2c0-2.1-.7-3.9-2.2-5.3-1.5-1.5-3.3-2.2-5.3-2.2s-3.9.7-5.3 2.2-2.2 3.3-2.2 5.3.7 3.9 2.2 5.3 3.3 2.2 5.3 2.2 3.9-.7 5.3-2.2c1.5-1.4 2.2-3.2 2.2-5.3zm28.2 0c0 2.9-1 5.4-3.1 7.5-2.1 2.1-4.5 3.1-7.5 3.1-2.9 0-5.4-1-7.5-3.1-2.1-2.1-3.1-4.5-3.1-7.5s1-5.4 3.1-7.5c2.1-2.1 4.5-3.1 7.5-3.1 2.9 0 5.4 1 7.5 3.1 2.1 2 3.1 4.6 3.1 7.5zm-10.6-7.6c-2.1 0-3.9.7-5.3 2.2s-2.2 3.3-2.2 5.3.7 3.9 2.2 5.3c1.5 1.5 3.3 2.2 5.3 2.2 2.1 0 3.9-.7 5.3-2.2 1.5-1.5 2.2-3.3 2.2-5.3s-.7-3.9-2.2-5.3-3.2-2.2-5.3-2.2zm17.6 16.7c0 .8-.7 1.5-1.5 1.5s-1.5-.7-1.5-1.5V10.6c0-.8.7-1.5 1.5-1.5s1.5.7 1.5 1.5v.4c1.5-1.3 3.3-1.9 5.3-1.9 2.3 0 4.3.8 5.9 2.4.3.3.7.7 1 1.1.3-.4.6-.7 1-1.1 1.6-1.6 3.6-2.4 5.9-2.4s4.3.8 5.9 2.4c1.6 1.6 2.4 3.6 2.4 5.9v11.3c0 .8-.7 1.5-1.5 1.5s-1.5-.7-1.5-1.5V17.4c0-1.5-.5-2.7-1.6-3.8-1-1-2.3-1.6-3.8-1.6s-2.7.5-3.8 1.6c-1 1-1.6 2.3-1.6 3.8v11.3c0 .8-.7 1.5-1.5 1.5s-1.5-.7-1.5-1.5V17.4c0-1.5-.5-2.7-1.6-3.8-1-1-2.3-1.6-3.8-1.6s-2.7.5-3.8 1.6c-1 1-1.6 2.3-1.6 3.8v11.4h.2z"/></svg>