<svg xmlns="http://www.w3.org/2000/svg" version="1.1" xlink="http://www.w3.org/1999/xlink" xmlns:svgjs="http://svgjs.com/svgjs" width="100%" height="100%" preserveAspectRatio="xMidYMid meet" viewBox="8.676738438850862e-9 -8.770740009822475e-7 299.9997863769531 71.93023681640625" overflow="visible"><defs id="SvgjsDefs297952"></defs><g id="SvgjsG297953" transform="scale(0.7851430649187852)" opacity="1"><g id="SvgjsG297954" class="text" transform="translate(246.68573440039464, 75.34296338457656) scale(1)" light-content="false" fill="#5f5e5e"><path d="M-118.31 -1.72C-114.37 0.55 -110.01 1.68 -105.25 1.68C-101.95 1.68 -99.2 1.43 -97.02 0.92C-94.84 0.42 -92.81 -0.52 -90.93 -1.89C-89.05 -3.26 -87.05 -5.29 -84.92 -7.98C-84.7 -8.2 -84.59 -8.48 -84.59 -8.82C-84.59 -9.44 -85.04 -10.05 -85.93 -10.67C-86.49 -11 -87 -11.17 -87.44 -11.17C-87.95 -11.17 -88.34 -10.92 -88.62 -10.42C-90.36 -7.62 -92.3 -5.59 -94.46 -4.33C-96.61 -3.07 -99.2 -2.44 -102.23 -2.44C-105.98 -2.44 -109.31 -3.51 -112.22 -5.67C-115.14 -7.83 -117.39 -10.74 -118.99 -14.41C-120.58 -18.07 -121.38 -22.15 -121.38 -26.63C-121.38 -31.78 -120.64 -36.22 -119.15 -39.94C-117.67 -43.67 -115.6 -46.49 -112.94 -48.43C-110.28 -50.36 -107.24 -51.32 -103.82 -51.32C-100.8 -51.32 -98.43 -50.58 -96.73 -49.1C-95.02 -47.61 -94.16 -45.61 -94.16 -43.09C-94.16 -41.8 -94.47 -40.71 -95.09 -39.82C-95.7 -38.92 -96.4 -38.22 -97.19 -37.72C-97.97 -37.21 -98.36 -36.9 -98.36 -36.79C-98.42 -36.51 -98.28 -36.12 -97.94 -35.62C-97.61 -35.11 -97.09 -34.68 -96.39 -34.31C-95.69 -33.95 -94.84 -33.77 -93.83 -33.77C-91.2 -33.77 -89.1 -34.65 -87.53 -36.41C-85.96 -38.18 -85.2 -40.32 -85.26 -42.84C-85.26 -46.87 -87.14 -49.85 -90.89 -51.79C-94.64 -53.72 -98.92 -54.68 -103.74 -54.68C-109.28 -54.68 -114.13 -53.49 -118.27 -51.11C-122.42 -48.73 -125.61 -45.39 -127.85 -41.08C-130.09 -36.76 -131.21 -31.78 -131.21 -26.12C-131.21 -20.52 -130.05 -15.62 -127.72 -11.42C-125.4 -7.22 -122.26 -3.99 -118.31 -1.72Z M-79.8 -0.25C-79.58 0.08 -79.24 0.25 -78.79 0.25C-75.49 0.08 -72.58 0 -70.06 0C-67.42 0 -64.48 0.08 -61.24 0.25C-60.84 0.25 -60.54 0.08 -60.31 -0.25C-60.09 -0.59 -59.98 -0.98 -59.98 -1.43C-60.03 -2.1 -60.16 -2.52 -60.35 -2.69C-60.55 -2.86 -60.9 -2.94 -61.4 -2.94L-61.91 -2.94C-63.36 -2.94 -64.4 -3.19 -65.02 -3.7C-65.63 -4.2 -65.98 -4.79 -66.07 -5.46C-66.15 -6.13 -66.19 -7.2 -66.19 -8.65L-66.19 -28.64C-65.58 -29.93 -64.33 -31.22 -62.45 -32.51C-60.58 -33.8 -58.35 -34.44 -55.78 -34.44C-53.65 -34.44 -51.79 -33.75 -50.19 -32.38C-48.59 -31.01 -47.8 -29.04 -47.8 -26.46L-47.8 -8.65C-47.8 -7.14 -47.84 -6.06 -47.92 -5.42C-48.01 -4.77 -48.36 -4.2 -48.97 -3.7C-49.59 -3.19 -50.62 -2.94 -52.08 -2.94C-52.81 -2.94 -53.3 -2.87 -53.55 -2.73C-53.8 -2.59 -53.96 -2.16 -54.01 -1.43C-54.01 -0.98 -53.9 -0.59 -53.68 -0.25C-53.45 0.08 -53.12 0.25 -52.67 0.25C-49.48 0.08 -46.56 0 -43.93 0C-41.36 0 -38.42 0.08 -35.11 0.25C-34.72 0.25 -34.41 0.08 -34.19 -0.25C-33.96 -0.59 -33.85 -0.98 -33.85 -1.43C-33.91 -2.1 -34.03 -2.52 -34.23 -2.69C-34.43 -2.86 -34.78 -2.94 -35.28 -2.94L-35.78 -2.94C-37.24 -2.94 -38.28 -3.19 -38.89 -3.7C-39.51 -4.2 -39.86 -4.79 -39.94 -5.46C-40.03 -6.13 -40.07 -7.2 -40.07 -8.65L-40.07 -26.54C-40.07 -30.3 -41.19 -33.32 -43.43 -35.62C-45.67 -37.91 -48.69 -39.06 -52.5 -39.06C-54.68 -39.06 -56.57 -38.77 -58.17 -38.18C-59.77 -37.59 -61.07 -36.89 -62.08 -36.08C-63.08 -35.27 -64.4 -34.1 -66.02 -32.59L-66.19 -32.59L-66.19 -59.64C-66.19 -60.7 -66.72 -61.24 -67.79 -61.24C-68.18 -61.24 -68.91 -61.04 -69.97 -60.65C-70.2 -60.59 -71.02 -60.33 -72.45 -59.85C-73.88 -59.37 -75.99 -58.94 -78.79 -58.55C-79.24 -58.49 -79.58 -58.31 -79.8 -58C-80.02 -57.69 -80.14 -57.37 -80.14 -57.04C-80.14 -56.31 -79.97 -55.85 -79.63 -55.65C-79.3 -55.45 -78.79 -55.36 -78.12 -55.36C-76.66 -55.36 -75.63 -55.1 -75.01 -54.6C-74.4 -54.1 -74.05 -53.51 -73.96 -52.84C-73.88 -52.16 -73.84 -51.1 -73.84 -49.64L-73.84 -8.65C-73.84 -7.2 -73.89 -6.13 -74 -5.46C-74.12 -4.79 -74.48 -4.2 -75.1 -3.7C-75.71 -3.19 -76.75 -2.94 -78.2 -2.94C-78.93 -2.94 -79.42 -2.87 -79.67 -2.73C-79.93 -2.59 -80.08 -2.16 -80.14 -1.43C-80.14 -0.98 -80.02 -0.59 -79.8 -0.25Z M-26.63 -1.85C-24.56 0.06 -21.84 1.01 -18.48 1.01C-15.68 1.01 -13.06 0.42 -10.63 -0.76C-8.19 -1.93 -6.38 -3.61 -5.21 -5.8C-4.98 -3.72 -4.06 -2.07 -2.44 -0.84C-0.81 0.39 1.06 1.01 3.19 1.01C4.2 1.01 5.22 0.85 6.26 0.55C7.29 0.24 7.81 -0.25 7.81 -0.92C7.81 -1.48 7.71 -1.85 7.52 -2.02C7.32 -2.18 7 -2.27 6.55 -2.27C5.04 -2.27 3.95 -2.8 3.28 -3.86C2.6 -4.93 2.24 -6.05 2.18 -7.22L2.18 -26.8C2.18 -31.5 0.74 -34.72 -2.14 -36.46C-5.03 -38.19 -8.76 -39.06 -13.36 -39.06C-17.05 -39.06 -20.2 -38.36 -22.81 -36.96C-25.41 -35.56 -26.71 -33.4 -26.71 -30.49C-26.71 -28.81 -26.22 -27.36 -25.24 -26.12C-24.26 -24.89 -22.93 -24.28 -21.25 -24.28C-20.24 -24.28 -19.39 -24.54 -18.69 -25.07C-17.99 -25.61 -17.64 -26.04 -17.64 -26.38C-17.64 -26.43 -17.88 -26.66 -18.35 -27.05C-18.83 -27.44 -19.28 -27.93 -19.7 -28.52C-20.12 -29.11 -20.33 -29.85 -20.33 -30.74C-20.33 -32.54 -19.68 -33.96 -18.4 -35.03C-17.11 -36.09 -15.6 -36.62 -13.86 -36.62C-10.84 -36.62 -8.64 -35.91 -7.27 -34.48C-5.89 -33.05 -5.21 -30.97 -5.21 -28.22L-5.21 -21.59C-10.36 -21.31 -14.56 -20.9 -17.81 -20.37C-21.06 -19.84 -23.86 -18.69 -26.21 -16.93C-28.56 -15.16 -29.74 -12.52 -29.74 -8.99C-29.74 -6.13 -28.7 -3.75 -26.63 -1.85ZM-10.5 -4.96C-12.12 -4 -13.89 -3.53 -15.79 -3.53C-19.43 -3.53 -21.25 -5.43 -21.25 -9.24C-21.25 -12.49 -20.05 -14.84 -17.64 -16.3C-15.23 -17.75 -11.09 -18.7 -5.21 -19.15L-5.21 -14.36C-5.21 -12.35 -5.68 -10.51 -6.64 -8.86C-7.59 -7.21 -8.88 -5.91 -10.5 -4.96Z M19.99 -1.6C21.95 0.42 24.3 1.43 27.05 1.43C29.01 1.43 30.7 1.25 32.13 0.88C33.56 0.52 35.08 -0.2 36.71 -1.26C37.04 -1.54 37.21 -1.79 37.21 -2.02C37.21 -2.18 37.18 -2.32 37.13 -2.44C36.9 -2.94 36.68 -3.35 36.46 -3.65C36.23 -3.96 35.92 -4.12 35.53 -4.12C35.36 -4.12 34.92 -3.98 34.19 -3.7C32.84 -3.08 31.3 -2.77 29.57 -2.77C27.83 -2.77 26.59 -3.39 25.83 -4.62C25.07 -5.85 24.7 -7.39 24.7 -9.24L24.7 -34.78L34.1 -34.52C34.38 -34.52 34.62 -34.79 34.82 -35.32C35.01 -35.85 35.11 -36.43 35.11 -37.04C35.11 -38.11 34.75 -38.64 34.02 -38.64L33.85 -38.64L24.02 -38.05L24.61 -47.63C24.61 -48.02 24.42 -48.31 24.02 -48.51C23.63 -48.71 23.24 -48.8 22.85 -48.8C21.9 -48.8 21.28 -48.44 21 -47.71C20.27 -45.58 19.66 -44 19.15 -42.97C18.65 -41.93 17.85 -40.98 16.76 -40.11C15.67 -39.24 14.14 -38.61 12.18 -38.22C11.79 -38.16 11.49 -37.95 11.3 -37.59C11.1 -37.23 11 -36.79 11 -36.29C11 -35.9 11.12 -35.55 11.34 -35.24C11.56 -34.93 11.84 -34.78 12.18 -34.78L17.05 -34.94L17.05 -10.25C17.05 -6.5 18.03 -3.61 19.99 -1.6Z M43.05 -0.25C43.3 0.08 43.62 0.25 44.02 0.25C47.32 0.08 50.23 0 52.75 0C55.38 0 58.32 0.08 61.57 0.25C62.02 0.25 62.36 0.08 62.58 -0.25C62.8 -0.59 62.92 -0.98 62.92 -1.43C62.86 -2.1 62.72 -2.52 62.5 -2.69C62.27 -2.86 61.94 -2.94 61.49 -2.94L60.98 -2.94C59.53 -2.94 58.49 -3.19 57.88 -3.7C57.26 -4.2 56.9 -4.79 56.78 -5.46C56.67 -6.13 56.62 -7.2 56.62 -8.65L56.62 -59.64C56.62 -60.7 56.17 -61.24 55.27 -61.24L55.02 -61.24C54.52 -61.18 53.87 -61.01 53.09 -60.73C50.57 -59.78 47.54 -59.05 44.02 -58.55C43.57 -58.49 43.23 -58.31 43.01 -58C42.78 -57.69 42.67 -57.37 42.67 -57.04C42.67 -56.31 42.84 -55.85 43.18 -55.65C43.51 -55.45 44.02 -55.36 44.69 -55.36C46.14 -55.36 47.18 -55.1 47.8 -54.6C48.41 -54.1 48.76 -53.51 48.85 -52.84C48.93 -52.16 48.97 -51.1 48.97 -49.64L48.97 -8.65C48.97 -7.2 48.92 -6.13 48.8 -5.46C48.69 -4.79 48.33 -4.2 47.71 -3.7C47.1 -3.19 46.06 -2.94 44.6 -2.94C43.88 -2.94 43.39 -2.87 43.13 -2.73C42.88 -2.59 42.73 -2.16 42.67 -1.43C42.67 -0.98 42.8 -0.59 43.05 -0.25Z M67.91 -0.25C68.17 0.08 68.49 0.25 68.88 0.25C72.18 0.08 75.1 0 77.62 0C80.25 0 83.19 0.08 86.44 0.25C86.88 0.25 87.22 0.08 87.44 -0.25C87.67 -0.59 87.78 -0.98 87.78 -1.43C87.72 -2.1 87.58 -2.52 87.36 -2.69C87.14 -2.86 86.8 -2.94 86.35 -2.94L85.85 -2.94C84.39 -2.94 83.36 -3.19 82.74 -3.7C82.12 -4.2 81.76 -4.79 81.65 -5.46C81.54 -6.13 81.48 -7.2 81.48 -8.65L81.48 -37.88C81.48 -38.95 81.03 -39.48 80.14 -39.48L79.88 -39.48C79.38 -39.42 78.74 -39.26 77.95 -38.98C75.43 -38.02 72.41 -37.3 68.88 -36.79C68.43 -36.74 68.1 -36.55 67.87 -36.25C67.65 -35.94 67.54 -35.62 67.54 -35.28C67.54 -34.55 67.7 -34.09 68.04 -33.89C68.38 -33.7 68.88 -33.6 69.55 -33.6C71.01 -33.6 72.04 -33.35 72.66 -32.84C73.28 -32.34 73.63 -31.75 73.71 -31.08C73.79 -30.41 73.84 -29.34 73.84 -27.89L73.84 -8.65C73.84 -7.2 73.79 -6.13 73.71 -5.46C73.63 -4.79 73.28 -4.2 72.66 -3.7C72.04 -3.19 71.01 -2.94 69.55 -2.94C68.82 -2.94 68.32 -2.87 68.04 -2.73C67.76 -2.59 67.59 -2.16 67.54 -1.43C67.54 -0.98 67.66 -0.59 67.91 -0.25ZM73.25 -50.27C74.31 -49.29 75.63 -48.8 77.2 -48.8C78.76 -48.8 80.08 -49.28 81.14 -50.23C82.21 -51.18 82.74 -52.33 82.74 -53.68C82.74 -55.19 82.29 -56.43 81.4 -57.41C80.5 -58.39 79.35 -58.88 77.95 -58.88C76.33 -58.88 74.87 -58.38 73.58 -57.37C72.3 -56.36 71.65 -55.22 71.65 -53.93C71.65 -52.47 72.18 -51.25 73.25 -50.27Z M103.99 -14.2C106.62 -7.31 108.67 -2.3 110.12 0.84L113.65 0.84C113.76 0.78 115.58 -3.58 119.11 -12.26C122.64 -20.94 125.05 -26.91 126.34 -30.16C127.12 -32.12 128.07 -33.43 129.19 -34.1C130.31 -34.78 131.91 -35.11 133.98 -35.11C134.43 -35.11 134.76 -35.2 134.99 -35.36C135.21 -35.53 135.35 -35.95 135.41 -36.62C135.41 -37.02 135.3 -37.39 135.07 -37.76C134.85 -38.12 134.54 -38.3 134.15 -38.3L132.38 -38.22C129.81 -38.11 128.07 -38.05 127.18 -38.05C124.94 -38.05 122.22 -38.14 119.03 -38.3C118.64 -38.3 118.34 -38.12 118.15 -37.76C117.95 -37.39 117.85 -37.02 117.85 -36.62C117.91 -35.95 118.03 -35.53 118.23 -35.36C118.43 -35.2 118.75 -35.11 119.2 -35.11L119.7 -35.11C120.99 -35.11 121.91 -35 122.47 -34.78C123.03 -34.55 123.31 -34.13 123.31 -33.52C123.31 -33.12 123.17 -32.45 122.89 -31.5L114.58 -9.49L114.32 -9.49C113.2 -11.84 111.36 -16.3 108.78 -22.85C106.65 -28.11 105.56 -30.8 105.5 -30.91C104.22 -33.77 102.59 -35.77 100.63 -36.92C98.67 -38.07 95.98 -38.56 92.57 -38.39C92.4 -38.39 92.05 -38.37 91.52 -38.35C90.99 -38.32 90.54 -38.22 90.17 -38.05C89.81 -37.88 89.63 -37.46 89.63 -36.79C89.63 -36.23 89.68 -35.84 89.8 -35.62C89.91 -35.39 90.19 -35.25 90.64 -35.2C91.08 -35.14 91.39 -35.08 91.56 -35.03C93.18 -34.8 94.42 -34.29 95.26 -33.47C96.1 -32.66 96.99 -31.16 97.94 -28.98C99.12 -26.63 100.37 -23.72 101.68 -20.24C103 -16.77 103.77 -14.76 103.99 -14.2Z"></path></g><g id="SvgjsG297955" class="vBIBEc8T8" transform="translate(-3.793991416309012, -9.931330472103003) scale(1.1158798283261804)" light-content="false" non-strokable="false" fill="#bc5757"><path d="M58.5 32.6c-3.1 0-6.1 1-8.5 3-2.4-1.9-5.4-3-8.5-3-3.6 0-7 1.4-9.6 4-2.6 2.6-4 6-4 9.6 0 3.6 1.4 7 4 9.6L47 70.9c.8.8 1.8 1.2 3 1.2s2.2-.4 3-1.2l15.1-15.1c2.6-2.6 4-6 4-9.6 0-3.6-1.4-7.1-4-9.6-2.6-2.6-6-4-9.6-4zm6 19.7L50 66.8 35.5 52.2c-1.6-1.6-2.5-3.8-2.5-6.1s.9-4.5 2.5-6.1c1.6-1.6 3.8-2.5 6.1-2.5s4.5.9 6.1 2.5l.6.6c.9.9 2.6.9 3.5 0l.6-.6c1.6-1.6 3.8-2.5 6.1-2.5s4.5.9 6.1 2.5c1.6 1.6 2.5 3.8 2.5 6.1s-.9 4.5-2.6 6.2zM96.6 50C96.6 27.3 75.7 8.9 50 8.9S3.4 27.3 3.4 50c0 8.9 3.3 17.7 9.4 24.8-1.3 2.7-3.1 4.9-5.4 6.4-1.3.9-1.9 2.4-1.6 3.9.3 1.5 1.6 2.6 3.1 2.8 1.5.2 3 .3 4.4.3 4.7 0 9-1 12.7-3C33.2 89 41.5 91 49.9 91c25.8.1 46.7-18.3 46.7-41zM50 86.1c-8.1 0-15.9-2-22.7-5.9-.4-.2-.8-.3-1.2-.3-.4 0-.9.1-1.3.4-3.4 2.1-7.5 3.1-12 3 2.3-2.2 4.1-4.9 5.3-8.1.3-.9.1-1.9-.5-2.6-6-6.5-9.1-14.3-9.1-22.6 0-19.9 18.6-36.1 41.6-36.1S91.6 30.1 91.6 50 72.9 86.1 50 86.1z"></path></g></g></svg>