<svg xmlns="http://www.w3.org/2000/svg" viewBox="0 0 352 63.81"><defs><style>.cls-1{fill:#e52828;}.cls-2{fill:#fff;}</style></defs><title>Asset 1</title><g id="Layer_2" data-name="Layer 2"><g id="Layer_1-2" data-name="Layer 1"><g id="Heart"><path class="cls-1" d="M86.19,3.73c-2.49-5.92-9.55-4.54-9.6,2.33,0,3.77,3.36,5.18,5.62,6.69a10.94,10.94,0,0,1,4,4.31c.21-.83,1.94-2.89,4-4.35,2.22-1.6,5.65-2.92,5.62-6.69C95.74-.86,88.56-1.95,86.19,3.73Z"/></g><path class="cls-2" d="M0,23.35H24.61v5.84H6.26v10H21.69v5.84H6.26V60.9H0Z"/><path class="cls-2" d="M41.3,23.35h6.26V55.06h17.1V60.9H41.3Z"/><path class="cls-2" d="M105.54,23.35h6.76l16.18,26.71V23.35h6.26V60.9h-6.33L111.8,33.44V60.9h-6.26Z"/><path class="cls-2" d="M151.84,53.77V30.9a7.55,7.55,0,0,1,7.55-7.55h12.44a7.54,7.54,0,0,1,7.54,7.55v4.55h-6.25V31.19c0-1.46-.55-2-2.09-2H160.19c-1.54,0-2.09.54-2.09,2V53.06c0,1.46.55,2,2.09,2H171c1.54,0,2.09-.54,2.09-2V46.3h-8.35V40.88h14.6V53.77a7.54,7.54,0,0,1-7.54,7.55H159.39A7.55,7.55,0,0,1,151.84,53.77Z"/><path class="cls-2" d="M196.06,53.77V49.22h6.67v4.19c0,1.52.57,2.07,2.1,2.07h9.68c1.45,0,2-.54,2-2V48.9c0-1.72-.7-2.26-2.47-2.64L203.81,44c-4.52-1-7.75-2.65-7.75-7.77V30.9a7.55,7.55,0,0,1,7.55-7.55H214.8a7.55,7.55,0,0,1,7.54,7.55V35h-6.26v-3.8a2,2,0,0,0-2-2h-9.67a2,2,0,0,0-2.05,2v4c0,1.73.71,2.26,2.58,2.7l10.37,2.21c4.67,1,7.91,2.64,7.91,7.76v5.87a7.55,7.55,0,0,1-7.55,7.55h-12A7.55,7.55,0,0,1,196.06,53.77Z"/><path class="cls-2" d="M249,29.19H238.19V23.35h27.95v5.84H255.71V60.9H249Z"/><path class="cls-2" d="M282.83,23.35h24.61v5.84H289.08v9.6h15v5.84h-15V55.06h18.36V60.9H282.83Z"/><path class="cls-2" d="M352,61.32h-6.89l-7-14.19h-7.72V61.32h-6.25v-38h19.15a7.55,7.55,0,0,1,7.54,7.55v8.51c0,4.55-1.87,7-5.83,7.48Zm-9.82-20c1.44,0,2-.54,2-2.06v-8a2,2,0,0,0-2-2H330.38v12.1Z"/><g id="lightning_bolt_2" data-name="lightning bolt 2"><g id="_965-lightning-bolt-selected_2x.png" data-name="965-lightning-bolt-selected@2x.png"><path class="cls-1" d="M92.67,34.46a.78.78,0,0,0,0-.66.63.63,0,0,0-.56-.43H88.53l3-9h0a.92.92,0,0,0,0-.28.66.66,0,0,0-.56-.72h-9a.59.59,0,0,0-.52.44h0L77,36.93h0a1,1,0,0,0,0,.46.63.63,0,0,0,.57.57h3.67L77,51.54h0v0h0a.78.78,0,0,0,0,.61.61.61,0,0,0,.55.39H82.6v10.5a.72.72,0,0,0,.46.74.56.56,0,0,0,.61-.4h0l5.69-14.6h-.1a.44.44,0,0,0,0-.35c-.1-.27-.54-.48-.54-.48H86.36l6.31-13.5Z"/></g></g></g></g></svg>