<svg xmlns="http://www.w3.org/2000/svg" version="1.1" xmlns:xlink="http://www.w3.org/1999/xlink" preserveAspectRatio="none" x="0px" y="0px" width="308px" height="279px" viewBox="0 0 308 279">
<defs>
<g id="Layer0_0_MEMBER_0_FILL">
<path fill="#E15E36" stroke="none" d="
M 432 445
L 432 444
Q 432.00390625 435.7115234375 426.15 429.85 420.2884765625 423.99609375 412 424 403.7115234375 423.99609375 397.85 429.85 391.99609375 435.7115234375 392 444
L 392 445
Q 391.99609375 453.2884765625 397.85 459.15 403.7115234375 465.00390625 412 465 420.2884765625 465.00390625 426.15 459.15 432.00390625 453.2884765625 432 445
M 120 445
L 120 444
Q 120.00390625 435.7115234375 114.15 429.85 108.2884765625 423.99609375 100 424 91.7115234375 423.99609375 85.85 429.85 79.99609375 435.7115234375 80 444
L 80 445
Q 79.99609375 453.2884765625 85.85 459.15 91.7115234375 465.00390625 100 465 108.2884765625 465.00390625 114.15 459.15 120.00390625 453.2884765625 120 445
M 365.6 25.6
Q 369.9966796875 21.2099609375 370 15 369.9966796875 8.7900390625 365.6 4.4 361.2099609375 0.0033203125 355 0 348.7900390625 0.0033203125 344.4 4.4
L 255 93.8 205.6 44.4
Q 201.2099609375 40.0033203125 195 40 188.7900390625 40.0033203125 184.4 44.4 180.0033203125 48.7900390625 180 55 180.0033203125 61.2099609375 184.4 65.6
L 244.4 125.6
Q 248.7900390625 129.9966796875 255 130 261.2099609375 129.9966796875 265.6 125.6
L 365.6 25.6 Z"/>
</g>

<g id="Layer0_0_MEMBER_1_FILL">
<path fill="#E15E36" stroke="none" d="
M 512 150
Q 512 129.3 497.35 114.65 482.7 100 462 100
L 50 100
Q 29.3 100 14.65 114.65 0 129.3 0 150
L 0 395
Q 0 415.7 14.65 430.35 29.3 445 50 445
L 462 445
Q 482.7 445 497.35 430.35 512 415.7 512 395
L 512 150 Z"/>
</g>

<g id="Layer0_0_MEMBER_2_FILL">
<path fill="#FFFFFF" stroke="none" d="
M 540.2 162.3
Q 535.45 160.85 529.85 160.15 524.1 159.5 522.05 159.3 485.3 156.65 426.5 155.55
L 374.9 155
Q 352.85 155 323.5 155.55 264.7 156.65 228 159.3 223.25 159.7 220.15 160.15 214.55 160.85 209.8 162.3 196.1 166.35 185.9 177.05 178 185 172.8 202.65 170.2 211.45 169.2 218.7
L 167.1 239.85
Q 165 265.35 165 286.55
L 165 318.35
Q 165 339.6 167.1 365 168.15 377.75 169.2 386.25
L 169.95 390.95
Q 171.15 396.75 172.8 402.3 178 419.95 185.9 427.9 195.95 438.45 211.5 442.45 219.9 444.6 232.2 445.8 253.2 447.8 316.2 449.05 347.7 449.75 375 450
L 426.45 449.4
Q 485.3 448.3 522.05 445.65 524.1 445.4 529.85 444.8 535.45 444.05 540.2 442.65 553.9 438.55 564.1 427.9 571.95 419.95 577.2 402.3 578.75 396.75 580 390.95
L 580.8 386.25
Q 581.85 377.75 582.9 365 585 339.6 585 318.35
L 585 286.55
Q 585 265.35 582.9 239.85
L 580.8 218.7
Q 579.75 211.45 577.2 202.65 571.95 185 564.1 177.05 553.9 166.35 540.2 162.3 Z"/>
</g>

<g id="Layer0_0_MEMBER_3_FILL">
<path fill="#42A77F" stroke="none" d="
M 306.1 318.45
L 283.6 318.45 267.75 370 251.65 318.45 228.5 318.45 255.55 390.05 279.5 390.05 306.1 318.45
M 154.3 318.45
L 154.3 336.15 176.85 336.15 176.85 390.05 198.95 390.05 198.95 336.15 221.55 336.15 221.55 318.45 154.3 318.45 Z"/>

<path fill="#E15E36" stroke="none" d="
M 100.75 170.6
Q 90.3 177.75 85.2 190.6 80.15 203.3 80.15 220.2 80 245.8 90.75 259.8 101.55 273.8 125.45 273.95 141.55 273.85 152 266.85 162.5 259.8 167.55 247.3 172.65 234.7 172.65 217.9 172.7 200.95 168.05 188.8 163.35 176.5 153.35 169.95 143.4 163.3 127.5 163.25 111.3 163.4 100.75 170.6
M 102.95 197.75
Q 105.3 188.65 110.7 183.3 116.1 178 125.3 177.9 136.25 178.1 142.1 183.95 147.95 189.7 150.15 199.15 152.35 208.55 152.15 219.55 152.25 231.05 150 239.95 147.65 248.85 142.25 254 136.85 259.15 127.65 259.25 116.7 259.1 110.85 253.45 105 247.85 102.8 238.65 100.6 229.4 100.75 218.4 100.7 206.85 102.95 197.75
M 199.85 194.7
Q 198.35 192.75 198.3 192.75
L 183.9 198.55
Q 184.05 198.45 185.95 201.75 187.8 204.95 189.7 212.45 191.55 219.95 191.75 232.6
L 191.75 273 209.95 273 209.95 233.25
Q 210 224.8 212.5 218.8 215 212.7 219 209.5 223 206.2 227.35 206.2 232.45 206.3 234.6 210.1 236.75 214 236.65 220.8
L 236.65 273 254.7 273 254.7 230.4
Q 254.75 223 257.5 217.55 260.15 212.15 264.25 209.15 268.2 206.2 272.35 206.2 277.45 206.3 279.6 210.1 281.75 214 281.65 220.8
L 281.65 273 299.7 273 299.7 219.5
Q 299.85 207 295 199.55 290.1 192.15 277.8 192 270.25 191.9 263.45 195.5 256.75 199 252.25 206.85 250.25 200.25 245.55 196.2 240.85 192.15 232.8 192 224.6 191.9 217.45 196.2 210.25 200.5 206.1 210.05 205 204.35 203.2 200.5 201.4 196.65 199.85 194.7
M 353.5 191.35
Q 342.5 191.35 333.85 196.35 325.15 201.35 320.1 211.15 315.1 220.8 314.95 235.1 314.95 246.9 318.45 255.65 321.95 264.4 329.6 269.25 337.2 274.1 349.45 274.15 357.65 274 364.45 272.3 371.25 270.5 375.3 268.7 379.4 267 379.55 266.85
L 374.7 255.4
Q 374.55 255.5 370.95 256.9 367.25 258.25 362.05 259.55 356.9 260.95 352.05 261.05 345.8 260.95 342.1 258.55 338.35 256.15 336.55 252.05 334.75 247.9 334.3 242.9 348.45 242.7 358.7 238.7 369 234.8 374.55 228.4 380.1 221.9 380.15 214.1 380.15 207.6 377.5 202.55 374.75 197.4 368.85 194.4 362.95 191.45 353.5 191.35
M 352.05 203.85
Q 356.55 203.95 359.2 206.65 361.9 209.4 361.95 214.1 362.05 218 359.15 221.75 356.35 225.6 350.15 228.25 343.9 230.95 333.85 231.45 333.9 224.7 335.55 218.45 337.2 212.15 341.2 208.1 345.1 204 352.05 203.85 Z"/>
</g>

<g id="Layer0_0_MEMBER_4_MEMBER_0_FILL">
<path fill="#FFFFFF" stroke="none" d="
M 455 227.5
Q 455 235.8 460.85 241.65 466.7 247.5 475 247.5 483.3 247.5 489.15 241.65 495 235.8 495 227.5 495 219.2 489.15 213.35 483.3 207.5 475 207.5 466.7 207.5 460.85 213.35 455 219.2 455 227.5 Z"/>
</g>

<g id="Layer0_0_MEMBER_4_MEMBER_1_FILL">
<path fill="#FFFFFF" stroke="none" d="
M 460.85 331.65
Q 466.7 337.5 475 337.5 483.3 337.5 489.15 331.65 495 325.8 495 317.5 495 309.2 489.15 303.35 483.3 297.5 475 297.5 466.7 297.5 460.85 303.35 455 309.2 455 317.5 455 325.8 460.85 331.65 Z"/>
</g>
</defs>

<g transform="matrix( 0.5999908447265625, 0, 0, 0.5999908447265625, 0,0) ">
<use xlink:href="#Layer0_0_MEMBER_0_FILL"/>
</g>

<g transform="matrix( 0.5999908447265625, 0, 0, 0.5999908447265625, 0,0) ">
<use xlink:href="#Layer0_0_MEMBER_1_FILL"/>
</g>

<g transform="matrix( 0.5999908447265625, 0, 0, 0.620330810546875, -87,-24.15) ">
<use xlink:href="#Layer0_0_MEMBER_2_FILL"/>
</g>

<g transform="matrix( 0.5999908447265625, 0, 0, 0.5999908447265625, 0,0) ">
<use xlink:href="#Layer0_0_MEMBER_3_FILL"/>
</g>

<g transform="matrix( 0.5999908447265625, 0, 0, 0.5999908447265625, 0,0) ">
<use xlink:href="#Layer0_0_MEMBER_4_MEMBER_0_FILL"/>
</g>

<g transform="matrix( 0.5999908447265625, 0, 0, 0.5999908447265625, 0,0) ">
<use xlink:href="#Layer0_0_MEMBER_4_MEMBER_1_FILL"/>
</g>
</svg>
